<?xml version="1.0" standalone="no"?>
<!DOCTYPE svg PUBLIC "-//W3C//DTD SVG 1.1//EN" "http://www.w3.org/Graphics/SVG/1.1/DTD/svg11.dtd" >
<svg xmlns="http://www.w3.org/2000/svg" xmlns:xlink="http://www.w3.org/1999/xlink" version="1.1">
<metadata></metadata>
<defs>
<font id="lionel_text_steamregular" horiz-adv-x="1671" >
<font-face units-per-em="2048" ascent="1638" descent="-410" />
<missing-glyph horiz-adv-x="641" />
<glyph horiz-adv-x="0" />
<glyph unicode="&#xd;" horiz-adv-x="2040" />
<glyph unicode=" "  horiz-adv-x="641" />
<glyph unicode="&#x09;" horiz-adv-x="641" />
<glyph unicode="&#xa0;" horiz-adv-x="641" />
<glyph unicode="!" horiz-adv-x="381" d="M82 112q0 46 32.5 78t78.5 32q45 0 75.5 -32t30.5 -78t-31 -79t-75 -33q-46 0 -78.5 33t-32.5 79zM83 1473h217l-38 -1153h-141z" />
<glyph unicode="&#x22;" horiz-adv-x="553" d="M70 1372q0 38 21 69.5t54 31.5t53.5 -31.5t20.5 -69.5q0 -75 -17 -186q-23 -150 -57 -150t-57 150q-18 113 -18 186zM336 1372q0 38 20.5 69.5t53.5 31.5t54 -31.5t21 -69.5q0 -73 -18 -186q-23 -150 -57 -150t-57 150q-17 111 -17 186z" />
<glyph unicode="#" horiz-adv-x="1346" d="M71 427l14 142h281l30 312h-284l14 142h281l28 288h139l-26 -288h305l29 288h139l-29 -288h285l-14 -142h-281l-31 -312h281l-13 -142h-282l-25 -288h-141l29 288h-310l-24 -288h-139l24 288h-280zM505 569h307l29 312h-305z" />
<glyph unicode="$" horiz-adv-x="981" d="M70 1032q0 141 103 252q99 107 245 137v187h155v-185q255 -37 338 -188l-114 -103q-65 99 -224 132v-507q161 -52 234 -122q90 -87 90 -234q0 -140 -91 -231q-85 -87 -233 -112v-183h-155v183q-190 32 -324 131l81 133q101 -71 243 -103v423q-158 39 -249 135 q-99 103 -99 255zM225 1032q0 -166 193 -228v450q-193 -74 -193 -222zM573 217q170 34 170 184q0 130 -170 196v-380z" />
<glyph unicode="%" horiz-adv-x="1528" d="M70 1155q0 131 92 224.5t221 93.5t219 -93.5t90 -224.5t-90 -222.5t-219 -91.5q-130 0 -221.5 91.5t-91.5 222.5zM221 1155q0 -68 47.5 -115t114.5 -47t113.5 47t46.5 115t-46.5 116t-113.5 48t-114.5 -48.5t-47.5 -115.5zM418 0l523 1473h177l-525 -1473h-175zM836 318 q0 130 91.5 221.5t221.5 91.5q129 0 220 -91t91 -222t-91 -224.5t-220 -93.5t-221 93.5t-92 224.5zM987 318q0 -68 47.5 -116t114.5 -48t113.5 48t46.5 116q0 67 -46.5 114.5t-113.5 47.5t-114.5 -47.5t-47.5 -114.5z" />
<glyph unicode="&#x26;" horiz-adv-x="1358" d="M70 324q0 267 332 529q-175 181 -175 345q0 142 96 221q89 74 234 74q136 0 227 -81q95 -83 95 -218q0 -171 -228 -355l318 -405q92 120 160 263l147 -72q-89 -182 -192 -305l200 -205l-124 -113l-197 197q-290 -230 -514 -230q-146 0 -261 103q-118 107 -118 252z M270 347q0 -85 64.5 -146t148.5 -61q157 0 344 181l-301 388q-125 -108 -167 -158q-89 -105 -89 -204zM397 1194q0 -102 129 -236q23 19 66 55q110 96 110 200q0 122 -145 122q-67 0 -111 -35q-49 -38 -49 -106z" />
<glyph unicode="'" horiz-adv-x="287" d="M70 1372q0 38 21 69.5t54 31.5t53.5 -31.5t20.5 -69.5q0 -75 -17 -186q-23 -150 -57 -150t-57 150q-18 113 -18 186z" />
<glyph unicode="(" horiz-adv-x="582" d="M74 712q0 239 91 501.5t237 448.5l102 -95q-125 -166 -200 -406q-73 -232 -73 -449q0 -203 63 -412q69 -230 188 -368l-97 -119q-143 167 -229 422q-82 246 -82 477z" />
<glyph unicode=")" horiz-adv-x="582" d="M77 1564l102 96q147 -186 238 -448.5t91 -501.5q0 -231 -83 -477q-86 -255 -228 -422l-95 116q118 138 187 370q61 208 61 413q0 217 -73 449q-75 240 -200 405z" />
<glyph unicode="*" horiz-adv-x="811" d="M59 643l289 70l-289 69l107 191l211 -211l-80 289h217l-82 -289l215 211l107 -191l-289 -69l289 -70l-107 -190l-215 213l82 -289h-217l80 289l-211 -213z" />
<glyph unicode="+" horiz-adv-x="838" d="M70 628v171h266v274h166v-274h266v-171h-266v-274h-166v274h-266z" />
<glyph unicode="," horiz-adv-x="324" d="M70 -166l26 166v205h160v-201l-135 -219z" />
<glyph unicode="-" horiz-adv-x="838" d="M70 621v186h698v-186h-698z" />
<glyph unicode="." horiz-adv-x="313" d="M70 98q0 41 25.5 70t62.5 29q36 0 62 -29t26 -70q0 -40 -26 -69t-62 -29q-37 0 -62.5 29t-25.5 69z" />
<glyph unicode="/" horiz-adv-x="700" d="M77 0l386 1473h159l-384 -1473h-161z" />
<glyph unicode="0" horiz-adv-x="1270" d="M84 739q0 331 152.5 542.5t398.5 211.5q245 0 398 -211.5t153 -542.5t-153 -545t-398 -214t-398 214t-153 545zM264 739q0 -230 81 -394q100 -201 290 -201t290 201q81 164 81 394q0 231 -81 393q-100 201 -290 201t-290 -201q-81 -162 -81 -393z" />
<glyph unicode="1" horiz-adv-x="1270" d="M305 1329v144h449v-1473h-176v1329h-273z" />
<glyph unicode="2" horiz-adv-x="1073" d="M116 0q223 270 387 516q247 370 247 531q0 96 -66.5 167.5t-161.5 71.5q-89 0 -154 -66t-74 -165q-53 48 -163 115q40 133 149 218t242 85q170 0 290 -126t120 -300q0 -124 -165 -418q-132 -237 -270 -419h472v-210h-853z" />
<glyph unicode="3" horiz-adv-x="1126" d="M107 268l168 95q32 -84 106.5 -135t163.5 -51q118 0 203.5 86t85.5 206q0 93 -75.5 192.5t-167.5 120.5q169 150 169 296q0 93 -64.5 159.5t-156.5 66.5q-67 0 -123 -37.5t-81 -99.5l-158 90q49 105 148 168.5t214 63.5q164 0 281.5 -119t117.5 -286q0 -132 -81 -246 q167 -152 167 -369q0 -200 -141 -342.5t-338 -142.5q-140 0 -260 77.5t-178 206.5z" />
<glyph unicode="4" horiz-adv-x="1303" d="M112 386q363 620 391 1087h182q-36 -440 -282 -916h416v710h168v-710h211v-171h-211v-386h-168v386h-707z" />
<glyph unicode="5" horiz-adv-x="1133" d="M108 171l108 129q133 -132 310 -132q136 0 234 97.5t98 235.5t-98 237t-234 99q-120 0 -236 -74l106 710h544v-179h-421l-39 -291q220 -5 381 -145q167 -146 167 -357q0 -209 -148 -355t-354 -146q-238 0 -418 171z" />
<glyph unicode="6" horiz-adv-x="1198" d="M104 491q0 215 135 527q121 282 275 481l134 -99q-130 -173 -245 -435q130 39 197 39q206 0 350 -151.5t144 -361.5q0 -209 -144 -359.5t-350 -150.5q-210 0 -353 148.5t-143 361.5zM274 491q0 -137 95.5 -236t230.5 -99q136 0 231 99t95 236q0 138 -95 238t-231 100 q-135 0 -230.5 -100t-95.5 -238z" />
<glyph unicode="7" horiz-adv-x="1270" d="M227 1329v144h892l-589 -1473h-181l533 1329h-655z" />
<glyph unicode="8" horiz-adv-x="1165" d="M104 447q0 232 218 380q-136 125 -136 282q0 158 120 267q117 107 276 107q158 0 275.5 -108t117.5 -266t-133 -282q219 -148 219 -380q0 -192 -142.5 -322.5t-334.5 -130.5q-193 0 -334 129q-146 132 -146 324zM279 447q0 -123 93 -209q90 -82 212 -82q121 0 210 82 q93 86 93 209q0 122 -93 207q-89 81 -210 81q-122 0 -212 -81q-93 -85 -93 -207zM362 1109q0 -89 66 -150.5t154 -61.5q87 0 153 61.5t66 150.5t-66 148.5t-153 59.5q-88 0 -154 -59.5t-66 -148.5z" />
<glyph unicode="9" horiz-adv-x="1198" d="M104 993q0 209 145 359.5t351 150.5q210 0 352 -148.5t142 -361.5q0 -215 -135 -527q-121 -282 -275 -481l-135 98q131 174 246 436q-124 -37 -195 -37q-205 0 -350.5 150.5t-145.5 360.5zM274 993q0 -138 95 -236.5t231 -98.5t231 98.5t95 236.5q0 137 -95 236.5 t-231 99.5q-135 0 -230.5 -99.5t-95.5 -236.5z" />
<glyph unicode=":" horiz-adv-x="324" d="M74 90q0 38 25.5 64.5t62.5 26.5t63.5 -26.5t26.5 -64.5q0 -37 -26.5 -63.5t-63.5 -26.5t-62.5 26.5t-25.5 63.5zM74 680q0 37 26 64.5t62 27.5t63 -27.5t27 -64.5q0 -38 -26.5 -64.5t-63.5 -26.5t-62.5 26.5t-25.5 64.5z" />
<glyph unicode=";" horiz-adv-x="342" d="M75 -167l27 160v200h158v-196l-135 -212zM92 680q0 38 26 65t62 27q37 0 63.5 -27.5t26.5 -64.5t-26.5 -63.5t-63.5 -26.5q-36 0 -62 26.5t-26 63.5z" />
<glyph unicode="&#x3c;" horiz-adv-x="879" d="M81 686l730 415v-182l-414 -233l414 -235v-179z" />
<glyph unicode="=" horiz-adv-x="881" d="M70 455v172h741v-172h-741zM70 808v173h741v-173h-741z" />
<glyph unicode="&#x3e;" horiz-adv-x="879" d="M70 249v177l414 235l-414 235v182l730 -417z" />
<glyph unicode="?" horiz-adv-x="840" d="M75 1212q32 114 126.5 187.5t214.5 73.5q145 0 248.5 -105t103.5 -253q0 -103 -91 -200q-83 -78 -165 -156q-51 -55 -51 -103v-336h-156v340q0 72 70 159q5 6 125 132q94 99 94 164q0 76 -52 130.5t-126 54.5t-126.5 -53t-53.5 -128q-11 11 -161 93zM274 112 q0 46 32.5 78t78.5 32q45 0 77 -32t32 -78t-32 -79t-77 -33t-78 33t-33 79z" />
<glyph unicode="@" horiz-adv-x="1485" d="M70 704q0 323 213 553q210 226 495 226q281 0 457 -205t180 -533q2 -173 -108 -290q-98 -104 -217 -104q-48 0 -96 30.5t-66 73.5q-77 -113 -254 -121q-135 0 -226 105t-91 260q0 166 104 298q112 143 274 143q125 0 212 -131l10 98h128l-51 -606q-3 -39 42 -42 q81 0 138.5 83t57.5 204q0 256 -135.5 413.5t-358.5 157.5q-226 0 -395 -178q-172 -182 -172 -435t169 -415q161 -154 392 -154q209 0 332 119l185 -69q-81 -91 -237 -146q-138 -49 -264 -49q-303 0 -500 176q-218 195 -218 538zM483 736q-8 -106 51 -180t152 -74 t163.5 73.5t78.5 178.5q8 106 -52 183.5t-153 77.5q-92 0 -162 -76.5t-78 -182.5z" />
<glyph unicode="A" horiz-adv-x="1497" d="M75 0l675 1580l674 -1580h-193l-206 481h-552l-207 -481h-191zM548 660h401l-199 472z" />
<glyph unicode="B" horiz-adv-x="1135" d="M162 0v1473h456q155 0 264 -111.5t109 -269.5q0 -146 -122 -282q208 -149 208 -376q0 -193 -137 -315q-133 -119 -336 -119h-442zM338 166l266 2q131 1 216 66q93 72 93 200q0 129 -93 205q-86 71 -216 71h-266v-544zM338 881l280 -2h3q85 0 145 62q60 63 61 151 q0 89 -60.5 151.5t-148.5 62.5h-280v-425z" />
<glyph unicode="C" horiz-adv-x="1399" d="M80 741q0 318 221 542t535 224q282 0 495 -187l-125 -127q-161 136 -370 136q-241 0 -410.5 -172t-169.5 -416q0 -243 169.5 -415t410.5 -172q209 0 370 135l125 -126q-213 -188 -495 -188q-314 0 -535 224.5t-221 541.5z" />
<glyph unicode="D" horiz-adv-x="1292" d="M162 0v1473h295q317 0 536 -212t219 -526t-219 -524.5t-536 -210.5h-295zM338 168h117q243 0 410 157q171 162 171 410t-171 411q-167 158 -410 158h-117v-1136z" />
<glyph unicode="E" horiz-adv-x="1198" d="M162 0v1473h903v-179h-727v-577h592v-179h-592v-359h727v-179h-903z" />
<glyph unicode="F" horiz-adv-x="1130" d="M162 0v1473h903v-179h-727v-577h592v-179h-592v-538h-176z" />
<glyph unicode="G" horiz-adv-x="1597" d="M80 741q0 321 208.5 543.5t518.5 222.5q286 0 501 -193l-125 -127q-163 142 -376 142q-239 0 -400 -171.5t-161 -416.5q0 -243 164 -415t397 -172q172 0 310 100.5t209 277.5h-705v180h913q-12 -308 -223 -522.5t-504 -214.5q-301 0 -514 224t-213 542z" />
<glyph unicode="H" horiz-adv-x="1372" d="M162 0v1473h176v-756h696v756h176v-1473h-176v548h-696v-548h-176z" />
<glyph unicode="I" horiz-adv-x="500" d="M162 0v1473h176v-1473h-176z" />
<glyph unicode="J" horiz-adv-x="1112" d="M71 360l167 83q46 -263 278 -264h3q152 0 217 119q43 79 43 196q0 29 -3 51v928h174v-933q0 -115 -8 -165q-61 -375 -432 -375q-364 0 -439 360z" />
<glyph unicode="K" horiz-adv-x="1184" d="M162 0v1472h176v-621l693 639l112 -135l-638 -591l699 -640l-115 -136l-714 655l-37 -32v-611h-176z" />
<glyph unicode="L" horiz-adv-x="1040" d="M162 0v1473h176v-1294h727v-179h-903z" />
<glyph unicode="M" horiz-adv-x="1759" d="M163 0l111 1495l617 -855l598 854l108 -1494h-176l-71 987l-459 -658l-477 687l-75 -1016h-176z" />
<glyph unicode="N" horiz-adv-x="1511" d="M162 0v1524l1009 -1089v1037h179v-1489l-1012 1089v-1072h-176z" />
<glyph unicode="O" d="M80 739q0 318 221 542t535 224q313 0 534 -224t221 -542q0 -317 -221 -542.5t-534 -225.5t-534.5 225.5t-221.5 542.5zM260 739q0 -244 168 -419.5t408 -175.5q239 0 407 175.5t168 419.5q0 245 -168 419.5t-407 174.5q-240 0 -408 -174.5t-168 -419.5z" />
<glyph unicode="P" horiz-adv-x="1135" d="M162 0v1473h442q196 0 334.5 -141.5t138.5 -340.5q-1 -200 -139 -341q-137 -139 -329 -139h-5l-266 2v-513h-176zM338 677l266 2q129 1 219 91.5t90 220.5q0 129 -90.5 220.5t-218.5 92.5l-266 2v-629z" />
<glyph unicode="Q" d="M80 725q0 316 221 540t535 224q313 0 534 -224t221 -540q0 -246 -144 -441q-147 -198 -414 -303q114 -46 173 -78q163 -88 298 -88l-55 -138q-122 4 -207 50q-214 115 -476 115q-163 0 -309 -100l-57 144q60 44 210 105q-254 111 -392 303.5t-138 430.5zM256 725 q0 -244 169.5 -415.5t410.5 -171.5q240 0 409.5 171.5t169.5 415.5q0 243 -169.5 415.5t-409.5 172.5q-241 0 -410.5 -172.5t-169.5 -415.5z" />
<glyph unicode="R" horiz-adv-x="1143" d="M162 1v1472h442q196 0 334.5 -141.5t138.5 -340.5q0 -302 -303 -451l388 -474l-125 -127l-537 656q213 102 246 119q167 83 167 277q0 129 -90.5 220.5t-218.5 92.5l-266 3v-1306h-176z" />
<glyph unicode="S" horiz-adv-x="1090" d="M80 1063q0 171 124 301q139 145 363 145q86 0 186 -28q197 -54 270 -189l-126 -116q-110 154 -332 155q-100 0 -194 -63q-115 -78 -115 -205q0 -160 143 -229q57 -28 117 -42q33 -7 93 -23q38 -11 121 -39q76 -29 132 -70q148 -104 148 -303q0 -192 -143 -298 q-127 -96 -324 -96q-218 0 -437 154l92 153q178 -128 341 -128q292 0 292 218q0 163 -249 234q-52 15 -127 33q-149 37 -245 124q-130 119 -130 312z" />
<glyph unicode="T" horiz-adv-x="1207" d="M78 1294v179h1050v-179h-436v-1294h-176v1294h-438z" />
<glyph unicode="U" horiz-adv-x="1188" d="M70 548v925h176v-925q7 -107 44 -184q88 -185 312 -185q212 0 297 180q36 76 43 181v933h178v-933q0 -173 -66 -300q-126 -240 -456 -240q-337 0 -462 242q-46 89 -60 185q-6 42 -6 121z" />
<glyph unicode="V" horiz-adv-x="1378" d="M73 1401l161 68l454 -997l456 997l163 -68l-619 -1386z" />
<glyph unicode="W" horiz-adv-x="1911" d="M75 1473h191l443 -1036l150 354l-290 682h192l195 -456l194 456h192l-290 -682l150 -354l443 1036h191l-634 -1488l-246 582l-247 -582z" />
<glyph unicode="X" horiz-adv-x="1368" d="M79 0l499 735l-499 738h215l390 -582l393 582h212l-497 -738l499 -735h-215l-392 577l-390 -577h-215z" />
<glyph unicode="Y" horiz-adv-x="1368" d="M79 1473h215l390 -582l393 582h212l-515 -764v-709h-178v709z" />
<glyph unicode="Z" horiz-adv-x="1047" d="M75 0l590 1294h-573v179h851l-582 -1294h618v-179h-904z" />
<glyph unicode="[" horiz-adv-x="641" d="M70 -80v1653h483v-139h-328v-1375h328v-139h-483z" />
<glyph unicode="\" horiz-adv-x="715" d="M77 1473h177l384 -1473h-175z" />
<glyph unicode="]" horiz-adv-x="641" d="M70 59h327v1375h-327v139h483v-1653h-483v139z" />
<glyph unicode="^" horiz-adv-x="1034" d="M77 639l441 822l442 -822h-172l-270 498l-268 -498h-173z" />
<glyph unicode="_" horiz-adv-x="1475" d="M12 -35h1452v-196h-1452v196z" />
<glyph unicode="`" horiz-adv-x="410" d="M75 1473h201l60 -371h-122z" />
<glyph unicode="a" horiz-adv-x="965" d="M59 422q0 175 121 300.5t291 125.5q149 0 264 -138v138h150v-848h-150v139q-99 -139 -264 -139q-170 0 -291 123.5t-121 298.5zM209 422q0 -111 77 -189t185 -78t186 78t78 189q0 110 -78 190.5t-186 80.5t-185 -80t-77 -191z" />
<glyph unicode="b" horiz-adv-x="1004" d="M119 0v1473h149v-770q116 136 262 136q171 0 292.5 -124.5t121.5 -297.5q0 -172 -121.5 -294.5t-292.5 -122.5q-163 0 -262 138v-138h-149zM268 417q0 -109 77 -186t185 -77q109 0 187 77t78 186q0 110 -78.5 189t-186.5 79q-107 0 -184.5 -79t-77.5 -189z" />
<glyph unicode="c" horiz-adv-x="866" d="M59 422q0 175 121 300.5t291 125.5q86 0 177 -30q98 -32 156 -85l-78 -140q-41 46 -120 75q-70 25 -135 25q-108 0 -185 -80t-77 -191t77 -189t185 -78q154 0 305 89v-152q-150 -92 -305 -92q-170 0 -291 123.5t-121 298.5z" />
<glyph unicode="d" horiz-adv-x="965" d="M59 417q0 174 121 298t291 124q149 0 264 -136v770h150v-1473h-150v138q-99 -138 -264 -138q-170 0 -291 122.5t-121 294.5zM209 417q0 -109 77 -186t185 -77t186 77t78 186q0 110 -78 189t-186 79t-185 -79t-77 -189z" />
<glyph unicode="e" horiz-adv-x="916" d="M59 423q0 172 116.5 298.5t282.5 126.5t282 -126.5t116 -298.5q0 -27 -3 -54h-643q24 -95 92.5 -154.5t155.5 -59.5q187 0 270 128l113 -93q-143 -190 -383 -190q-167 0 -283 125.5t-116 297.5zM212 488h492q-27 92 -94.5 148.5t-151.5 56.5t-151.5 -56.5t-94.5 -148.5z " />
<glyph unicode="f" horiz-adv-x="520" d="M51 700v139h133v322q0 143 99 228q92 80 235 83v-143q-74 -3 -127 -46q-61 -48 -61 -124v-320h159v-139h-159v-700h-146v700h-133z" />
<glyph unicode="g" horiz-adv-x="1026" d="M59 438q0 188 126 311q120 119 294 119q169 0 295 -165v145h146v-839q0 -187 -123 -303t-312 -116q-206 0 -356 139l93 114q106 -105 253 -105q166 0 242 99q57 73 57 186v149q-126 -165 -295 -165q-174 0 -294 119q-126 123 -126 312zM209 438q0 -118 81.5 -201 t196.5 -83q116 0 197.5 83t81.5 201q0 117 -81.5 200t-197.5 83q-115 0 -196.5 -83t-81.5 -200z" />
<glyph unicode="h" horiz-adv-x="995" d="M119 0v1473h145v-802q142 189 326 189q119 0 197 -66q102 -85 102 -266v-528h-146v501q0 216 -206 216q-107 0 -190 -82.5t-83 -192.5v-442h-145z" />
<glyph unicode="i" horiz-adv-x="432" d="M119 1110q0 44 29.5 74t72.5 30t74 -30t31 -74q0 -43 -31 -74.5t-74 -31.5q-42 0 -72 31t-30 75zM141 0v842h158v-842h-158z" />
<glyph unicode="j" horiz-adv-x="432" d="M119 1111q0 43 29.5 73t72.5 30t74 -30t31 -73q0 -44 -31 -75t-74 -31q-42 0 -72 31t-30 75zM141 -465v1308h158v-1308h-158z" />
<glyph unicode="k" horiz-adv-x="903" d="M119 0v1473h157v-967l359 333h232l-419 -388l409 -451h-214l-309 343l-58 -54v-289h-157z" />
<glyph unicode="l" horiz-adv-x="383" d="M119 0v1473h145v-1473h-145z" />
<glyph unicode="m" horiz-adv-x="1397" d="M119 0v848h151v-179q104 143 226 173q21 5 44 5q168 0 229 -194q94 153 239 189q21 5 44 5q92 0 159 -67q79 -79 79 -224v-556h-151v485q0 82 -34 144q-40 74 -114 74q-102 0 -159 -84q-52 -75 -52 -191v-428h-151v485q0 82 -35 144q-41 74 -115 74q-102 0 -159 -84 q-50 -76 -50 -193v-426h-151z" />
<glyph unicode="n" horiz-adv-x="995" d="M119 0v847h145v-169q142 190 326 190q119 0 197 -66q102 -86 102 -269v-533h-146v505q0 219 -206 219q-107 0 -190 -83.5t-83 -193.5v-447h-145z" />
<glyph unicode="o" horiz-adv-x="987" d="M59 424q0 184 127.5 314t307.5 130q179 0 306.5 -130t127.5 -314t-127.5 -314t-306.5 -130q-180 0 -307.5 130t-127.5 314zM209 424q0 -124 83 -210t202 -86q118 0 201 86t83 210q0 123 -83 209.5t-201 86.5q-119 0 -202 -86.5t-83 -209.5z" />
<glyph unicode="p" horiz-adv-x="1051" d="M119 -463v1311h145v-151q136 171 305 171q176 0 299 -129t123 -312t-123 -312t-299 -129q-169 0 -305 171v-620h-145zM272 427q0 -122 83.5 -207.5t201.5 -85.5t201.5 85.5t83.5 207.5q0 123 -83.5 208.5t-201.5 85.5t-201.5 -85.5t-83.5 -208.5z" />
<glyph unicode="q" horiz-adv-x="985" d="M59 426q0 173 121 297.5t291 124.5q164 0 264 -140v140h152v-1311h-152v607q-115 -137 -264 -137q-170 0 -291 122.5t-121 296.5zM211 426q0 -110 76 -187.5t184 -77.5t186 77.5t78 187.5q0 109 -78 188.5t-186 79.5t-184 -79t-76 -189z" />
<glyph unicode="r" horiz-adv-x="635" d="M119 0v848h151v-217q103 231 273 231q32 0 70 -11l-58 -173q-31 10 -66 10q-96 0 -160 -85q-59 -78 -59 -177v-426h-151z" />
<glyph unicode="s" horiz-adv-x="850" d="M63 168l95 109q148 -138 311 -138q156 0 156 102q0 60 -87 89q-56 13 -175 42q-246 61 -246 243q0 121 101 191q89 62 216 62q196 0 353 -119l-75 -108q-141 87 -280 87q-52 0 -94 -27q-51 -32 -51 -86q0 -57 85 -89q56 -15 174 -48q245 -67 245 -239q0 -123 -102 -191 q-89 -58 -220 -58q-110 0 -221 47q-115 49 -185 131z" />
<glyph unicode="t" horiz-adv-x="623" d="M70 680v161h163v459h158v-459h164v-161h-164v-680h-158v680h-163z" />
<glyph unicode="u" horiz-adv-x="862" d="M70 422v426h151v-426q0 -113 47 -183q55 -84 162 -84q108 0 163 84q48 71 48 183v426h152v-426q0 -178 -94 -296q-101 -126 -269 -126t-268 126q-92 118 -92 296z" />
<glyph unicode="v" horiz-adv-x="989" d="M54 848h171l271 -513l268 513h173l-441 -836z" />
<glyph unicode="w" horiz-adv-x="1368" d="M53 848h170l236 -492l229 479l230 -479l231 492h170l-402 -835l-229 464l-229 -464z" />
<glyph unicode="x" horiz-adv-x="946" d="M34 0l348 428l-336 420h187l242 -302l238 302h185l-334 -414l348 -434h-186l-255 317l-253 -317h-184z" />
<glyph unicode="y" horiz-adv-x="989" d="M54 848h171l273 -508l268 508h171l-634 -1190h-175l283 519z" />
<glyph unicode="z" horiz-adv-x="924" d="M79 0l473 693h-405v155h698l-473 -693h445v-155h-738z" />
<glyph unicode="{" horiz-adv-x="791" d="M103 740q103 27 144 96q21 34 21 65v479q4 52 23 89q44 89 153 92l279 -30v-72h-211q-104 0 -111 -100v-458q-3 -32 -18 -59q-37 -64 -130 -93q139 -53 148 -180v-456q8 -100 93 -100q8 0 17 1h212v-74l-267 -30q-13 -2 -25 -2q-100 0 -141 95q-22 50 -22 98v468 q0 30 -21 66q-41 71 -144 105z" />
<glyph unicode="|" horiz-adv-x="295" d="M70 0v1473h157v-1473h-157z" />
<glyph unicode="}" horiz-adv-x="791" d="M70 14h210q9 -1 17 -1q85 0 90 100v456q4 37 20 68q39 76 132 112q-138 43 -152 152v458q-7 100 -111 100h-206v72l279 30q162 -4 173 -181v-479q0 -30 22 -65q42 -69 146 -96q-104 -34 -146 -105q-22 -36 -22 -66v-468q0 -49 -20 -98q-41 -95 -140 -95q-12 0 -25 2 l-267 30v74z" />
<glyph unicode="~" horiz-adv-x="1012" d="M73 691q36 87 101 145q73 65 154 65q79 0 145 -45q58 -45 117 -90q42 -26 82 -26q114 0 151 84l117 -49q-39 -85 -106 -144q-75 -66 -154 -66q-77 0 -147 45q-61 44 -123 88q-41 26 -74 26q-96 0 -142 -82z" />
<glyph unicode="&#xa1;" horiz-adv-x="381" d="M82 0l38 1153h141l38 -1153h-217zM83 1360q0 47 31 80t76 33t77.5 -33.5t32.5 -79.5q0 -45 -32.5 -77.5t-77.5 -32.5t-76 32t-31 78z" />
<glyph unicode="&#xa2;" horiz-adv-x="887" d="M70 741q0 151 93 266t238 148v318h152v-317q174 -27 261 -107l-78 -140q-39 44 -118 72q-72 26 -137 26q-108 0 -184 -77.5t-76 -188.5q0 -110 76 -187.5t184 -77.5q152 0 307 89v-150q-109 -66 -239 -86v-329h-152v332q-144 34 -235.5 147.5t-91.5 261.5z" />
<glyph unicode="&#xa3;" horiz-adv-x="1395" d="M70 673v120h218q-32 115 -32 202q0 199 138 344.5t333 145.5q148 0 273.5 -91t174.5 -232q-94 -53 -142 -86q-27 103 -113.5 172t-192.5 69q-127 0 -218 -96.5t-91 -225.5q0 -83 37 -202h448v-120h-401q106 -226 106 -380q274 -133 412 -133q98 0 136 120h169 q-20 -114 -96 -197q-83 -89 -191 -89q-112 0 -311 80q-204 82 -324 82q-131 0 -196 -98h-131q42 225 385 242q-35 207 -115 373h-276z" />
<glyph unicode="&#xa4;" horiz-adv-x="1399" d="M-135 461v168h223q-8 62 -8 112q0 27 2 65h-217v168h250q77 237 274.5 385t446.5 148q282 0 495 -187l-125 -127q-161 136 -370 136q-174 0 -316.5 -96t-216.5 -259h424l-37 -168h-431q-3 -37 -3 -65q0 -52 10 -112h379l-37 -168h-282q82 -144 216.5 -225.5t293.5 -81.5 q209 0 370 135l125 -126q-213 -188 -495 -188q-236 0 -426.5 134t-277.5 352h-267z" />
<glyph unicode="&#xa5;" horiz-adv-x="1368" d="M79 1473h215l390 -582l393 582h212l-399 -592h165v-189h-281v-154h281v-189h-281v-349h-178v349h-283v189h283v154h-283v189h165z" />
<glyph unicode="&#xa6;" horiz-adv-x="297" d="M70 0v623h159v-623h-159zM70 864v609h159v-609h-159z" />
<glyph unicode="&#xa7;" horiz-adv-x="1085" d="M70 1304q0 195 148 323q142 122 339 122q137 0 259 -52q140 -60 197 -165l-128 -117q-48 75 -149 118q-89 38 -183 38q-115 0 -207 -73q-100 -79 -100 -194q0 -112 74 -179q55 -50 171 -88q120 -37 239 -74q130 -48 191 -119q78 -90 78 -243q0 -84 -73 -154 q90 -114 90 -273q0 -194 -148 -322q-141 -122 -338 -122q-136 0 -260 53q-140 60 -198 166l128 114q49 -74 148 -116q88 -37 182 -37q116 0 208 72q100 78 100 192q0 112 -74 180q-55 50 -171 88q-120 38 -239 75q-129 48 -190 119q-78 91 -78 244q0 82 75 154 q-91 116 -91 270zM211 878q0 -136 261 -221q71 -21 209 -63q116 -37 176 -80q15 42 15 89q0 135 -260 221q-71 21 -208 63q-115 37 -175 80q-18 -48 -18 -89z" />
<glyph unicode="&#xa8;" horiz-adv-x="608" d="M73 1407q0 41 27 69.5t66 28.5q38 0 65.5 -28.5t27.5 -69.5t-27.5 -70.5t-65.5 -29.5t-65.5 29.5t-27.5 70.5zM351 1407q0 41 27.5 69.5t65.5 28.5q39 0 66.5 -28.5t27.5 -69.5t-27.5 -70.5t-66.5 -29.5q-38 0 -65.5 29.5t-27.5 70.5z" />
<glyph unicode="&#xa9;" horiz-adv-x="1343" d="M70 739q0 254 176 433.5t426 179.5q249 0 426.5 -179.5t177.5 -433.5q0 -253 -177.5 -434.5t-426.5 -181.5t-425.5 181t-176.5 435zM197 739q0 -199 139.5 -341t335.5 -142t335.5 142t139.5 341t-139.5 339t-335.5 140q-197 0 -336 -140t-139 -339zM348 739q0 138 97 235 t233 97q166 0 263 -88l-62 -109q-71 78 -201 78q-88 0 -150.5 -62t-62.5 -151q0 -88 63 -152t150 -64q119 0 240 69v-115q-120 -73 -240 -73q-136 0 -233 99t-97 236z" />
<glyph unicode="&#xaa;" horiz-adv-x="733" d="M70 1088q0 127 87.5 216t211.5 89q88 0 172 -77v77h123v-615h-123v76q-76 -76 -172 -76q-124 0 -211.5 91t-87.5 219zM193 1088q0 -75 51.5 -129t124.5 -54q72 0 122 53.5t50 129.5q0 75 -50 127.5t-122 52.5q-73 0 -124.5 -53t-51.5 -127z" />
<glyph unicode="&#xab;" horiz-adv-x="1053" d="M79 430l462 289v-179l-192 -110l192 -106v-179zM520 430l463 289v-179l-194 -110l194 -106v-179z" />
<glyph unicode="&#xac;" horiz-adv-x="1188" d="M70 490v182h1050v-672h-178v490h-872z" />
<glyph unicode="&#xad;" horiz-adv-x="838" d="M70 621v186h698v-186h-698z" />
<glyph unicode="&#xae;" horiz-adv-x="1343" d="M70 733q0 254 176.5 434.5t425.5 180.5t426.5 -180.5t177.5 -434.5q0 -253 -177.5 -433.5t-426.5 -180.5t-425.5 180t-176.5 434zM197 733q0 -199 139.5 -340t335.5 -141t335.5 141t139.5 340t-139.5 340t-335.5 141t-335.5 -141t-139.5 -340zM473 427v644h207 q88 0 152.5 -62.5t64.5 -152.5q0 -120 -124 -193l163 -196l-71 -71l-252 298q39 16 115 55q71 44 71 107q0 84 -79 109q-39 13 -145 12v-550h-102z" />
<glyph unicode="&#xaf;" horiz-adv-x="803" d="M73 1298v175h657v-175h-657z" />
<glyph unicode="&#xb0;" horiz-adv-x="559" d="M73 1260q0 88 60.5 150.5t147.5 62.5q86 0 147.5 -62.5t61.5 -150.5q0 -89 -61.5 -152.5t-147.5 -63.5t-147 63.5t-61 152.5zM173 1260q0 -46 31.5 -78.5t76.5 -32.5q44 0 75.5 32.5t31.5 78.5q0 45 -31.5 77.5t-75.5 32.5q-45 0 -76.5 -32.5t-31.5 -77.5z" />
<glyph unicode="&#xb1;" horiz-adv-x="838" d="M70 0v180h698v-180h-698zM70 593v180h262v265h174v-265h262v-180h-262v-269h-174v269h-262z" />
<glyph unicode="&#xb2;" horiz-adv-x="643" d="M81 631q120 147 191 246q144 203 144 282q0 90 -109 90q-63 0 -102 -111l-114 38q67 221 243 221q93 0 157 -70.5t64 -167.5q0 -98 -204 -398h222v-130h-492z" />
<glyph unicode="&#xb3;" horiz-adv-x="590" d="M72 784l107 63q35 -96 110 -96q46 0 79 35t33 83q0 109 -140 127q108 100 108 155q0 35 -24 62t-58 27q-55 0 -80 -73l-104 58q59 133 184 133q81 0 138.5 -60.5t57.5 -144.5q0 -55 -31 -111q70 -77 70 -173q0 -99 -68.5 -170.5t-164.5 -71.5q-147 0 -217 157z" />
<glyph unicode="&#xb4;" horiz-adv-x="410" d="M74 1102l57 371h204l-142 -371h-119z" />
<glyph unicode="&#xb5;" horiz-adv-x="1122" d="M71 -348l190 1196h159l-64 -424q-2 -18 -2 -36q0 -95 66.5 -162.5t161.5 -67.5q201 0 233 205l76 485h162l-80 -509q-53 -335 -363 -335q-88 0 -170.5 50.5t-122.5 133.5l-86 -536h-160z" />
<glyph unicode="&#xb6;" horiz-adv-x="1055" d="M70 991q0 199 138 340t334 141h443v-1472h-174v514l-163 -3v-511h-177v517q-174 29 -287.5 162.5t-113.5 311.5zM233 991q0 -107 65.5 -190t172.5 -114v609q-107 -30 -172.5 -114t-65.5 -191zM648 679l163 -3v631l-163 -2v-626z" />
<glyph unicode="&#xb7;" horiz-adv-x="313" d="M70 727q0 41 25.5 69.5t62.5 28.5q36 0 62 -28.5t26 -69.5t-26 -70.5t-62 -29.5t-62 29.5t-26 70.5z" />
<glyph unicode="&#xb8;" horiz-adv-x="483" d="M73 -393l44 -2q158 -7 158 132q0 100 -199 94l93 200l132 -2l-50 -109q160 -50 160 -187q0 -143 -93 -198q-74 -43 -245 -45v117z" />
<glyph unicode="&#xb9;" horiz-adv-x="274" d="M70 631v756h135v-756h-135z" />
<glyph unicode="&#xba;" horiz-adv-x="733" d="M70 1088q0 127 87.5 216t211.5 89q123 0 209 -89t86 -216q0 -129 -86 -219.5t-209 -90.5q-124 0 -211.5 91t-87.5 219zM193 1088q0 -75 51.5 -129t124.5 -54q72 0 122 53.5t50 129.5q0 75 -50 127.5t-122 52.5q-73 0 -124.5 -53t-51.5 -127z" />
<glyph unicode="&#xbb;" horiz-adv-x="1053" d="M70 145v179l191 106l-191 110v179l461 -289zM510 145v179l194 106l-194 110v179l463 -289z" />
<glyph unicode="&#xbc;" horiz-adv-x="1427" d="M90 0l1103 1473h165l-1105 -1473h-163zM244 640v745h135v-745h-135zM722 177q186 320 201 556h125q-18 -206 -126 -438h200v336h113v-336h102v-118h-102v-177h-113v177h-400z" />
<glyph unicode="&#xbd;" horiz-adv-x="1434" d="M92 0l1103 1473h165l-1105 -1473h-163zM246 640v745h135v-745h-135zM851 2q61 74 191 242q144 199 144 277q0 92 -109 92q-64 0 -104 -112l-112 39q67 216 243 216q93 0 157 -69.5t64 -165.5q0 -94 -204 -390h222v-129h-492z" />
<glyph unicode="&#xbe;" horiz-adv-x="1427" d="M83 791l106 62q35 -95 110 -95q46 0 79.5 35t33.5 81q0 107 -141 125q108 99 108 154q0 34 -24 60.5t-58 26.5q-55 0 -80 -72l-103 58q59 130 183 130q81 0 139 -59.5t58 -141.5q0 -59 -29 -110q70 -76 70 -171q0 -97 -69.5 -167.5t-166.5 -70.5q-147 0 -216 155zM90 0 l1103 1473h165l-1105 -1473h-163zM722 177q186 320 201 556h125q-18 -206 -126 -438h200v336h113v-336h102v-118h-102v-177h-113v177h-400z" />
<glyph unicode="&#xbf;" horiz-adv-x="848" d="M78 357q0 104 91 200q83 78 165 156q51 55 51 103v337h156v-341q0 -72 -70 -158q-5 -7 -125 -132q-94 -99 -94 -165q0 -76 52 -130.5t126 -54.5t126.5 53.5t53.5 128.5q10 -11 160 -93q-31 -114 -125.5 -187.5t-214.5 -73.5q-146 0 -249 104.5t-103 252.5zM352 1360 q0 47 32 80t77 33t77.5 -33.5t32.5 -79.5q0 -45 -32.5 -77.5t-77.5 -32.5q-46 0 -77.5 32t-31.5 78z" />
<glyph unicode="&#xc0;" horiz-adv-x="1497" d="M67 0l675 1580l674 -1580h-193l-206 481h-552l-207 -481h-191zM540 660h401l-199 472zM558 2046h201l60 -371h-122z" />
<glyph unicode="&#xc1;" horiz-adv-x="1497" d="M67 0l675 1580l674 -1580h-193l-206 481h-552l-207 -481h-191zM540 660h401l-199 472zM701 1675l57 371h204l-142 -371h-119z" />
<glyph unicode="&#xc2;" horiz-adv-x="1497" d="M67 0l675 1580l674 -1580h-193l-206 481h-552l-207 -481h-191zM491 1552l143 351h243l144 -351h-105l-158 234l-158 -234h-109zM540 660h401l-199 472z" />
<glyph unicode="&#xc3;" horiz-adv-x="1497" d="M67 0l675 1580l674 -1580h-193l-206 481h-552l-207 -481h-191zM409 1653q8 109 60 184q60 87 158 87q46 0 117.5 -48t126.5 -48q82 0 120 96h95q-12 -108 -66 -183q-63 -88 -158 -88q-49 0 -112 48q-66 50 -115 50q-97 0 -131 -98h-95zM540 660h401l-199 472z" />
<glyph unicode="&#xc4;" horiz-adv-x="1497" d="M67 0l675 1580l674 -1580h-193l-206 481h-552l-207 -481h-191zM517 1714q0 41 27 69.5t66 28.5q38 0 65.5 -28.5t27.5 -69.5t-27.5 -70.5t-65.5 -29.5t-65.5 29.5t-27.5 70.5zM540 660h401l-199 472zM795 1714q0 41 27.5 69.5t65.5 28.5q39 0 66.5 -28.5t27.5 -69.5 t-27.5 -70.5t-66.5 -29.5q-38 0 -65.5 29.5t-27.5 70.5z" />
<glyph unicode="&#xc5;" horiz-adv-x="1497" d="M67 0l675 1580l674 -1580h-193l-206 481h-552l-207 -481h-191zM536 1733q0 87 61 150t147 63t147.5 -63t61.5 -150q0 -88 -62 -152t-147 -64q-86 0 -147 63.5t-61 152.5zM540 660h401l-199 472zM618 1733q0 -53 37 -90t89 -37q51 0 87 37t36 90t-36 91t-87 38 q-52 0 -89 -38.5t-37 -90.5z" />
<glyph unicode="&#xc6;" horiz-adv-x="2209" d="M-41 0l1256 1473h861v-179h-727v-634h592v-178h-592v-303h727v-179h-903v482h-553l-414 -482h-247zM771 660h402v475z" />
<glyph unicode="&#xc7;" horiz-adv-x="1399" d="M80 744q0 316 221 539.5t535 223.5q282 0 495 -186l-125 -127q-161 135 -370 135q-241 0 -410.5 -171t-169.5 -414t169.5 -414.5t410.5 -171.5q209 0 370 135l125 -126q-190 -166 -446 -185l-35 -74q162 -50 162 -182q0 -138 -89 -191q-72 -43 -239 -45v105l39 -1 q164 -7 164 136q0 93 -154 98h-43l74 156q-294 33 -489 249.5t-195 510.5z" />
<glyph unicode="&#xc8;" horiz-adv-x="1198" d="M154 0v1473h903v-179h-727v-577h592v-179h-592v-359h727v-179h-903zM456 1924h201l60 -371h-122z" />
<glyph unicode="&#xc9;" horiz-adv-x="1198" d="M154 0v1473h903v-179h-727v-577h592v-179h-592v-359h727v-179h-903zM557 1553l57 371h204l-142 -371h-119z" />
<glyph unicode="&#xca;" horiz-adv-x="1198" d="M154 0v1473h903v-179h-727v-577h592v-179h-592v-359h727v-179h-903zM327 1552l143 351h243l144 -351h-105l-158 234l-158 -234h-109z" />
<glyph unicode="&#xcb;" horiz-adv-x="1198" d="M154 0v1473h903v-179h-727v-577h592v-179h-592v-359h727v-179h-903zM374 1714q0 41 27 69.5t66 28.5q38 0 65.5 -28.5t27.5 -69.5t-27.5 -70.5t-65.5 -29.5t-65.5 29.5t-27.5 70.5zM652 1714q0 41 27.5 69.5t65.5 28.5q39 0 66.5 -28.5t27.5 -69.5t-27.5 -70.5 t-66.5 -29.5q-38 0 -65.5 29.5t-27.5 70.5z" />
<glyph unicode="&#xcc;" horiz-adv-x="500" d="M67 1924h201l60 -371h-122zM154 0v1473h176v-1473h-176z" />
<glyph unicode="&#xcd;" horiz-adv-x="500" d="M154 0v1473h176v-1473h-176zM168 1553l57 371h204l-142 -371h-119z" />
<glyph unicode="&#xce;" horiz-adv-x="500" d="M-11 1552l143 351h243l144 -351h-105l-158 234l-158 -234h-109zM154 0v1473h176v-1473h-176z" />
<glyph unicode="&#xcf;" horiz-adv-x="500" d="M24 1714q0 41 27 69.5t66 28.5q38 0 65.5 -28.5t27.5 -69.5t-27.5 -70.5t-65.5 -29.5t-65.5 29.5t-27.5 70.5zM154 0v1473h176v-1473h-176zM302 1714q0 41 27.5 69.5t65.5 28.5q39 0 66.5 -28.5t27.5 -69.5t-27.5 -70.5t-66.5 -29.5q-38 0 -65.5 29.5t-27.5 70.5z" />
<glyph unicode="&#xd0;" horiz-adv-x="1294" d="M70 629v169h92v675h295q317 0 536 -212t219 -526t-219 -524.5t-536 -210.5h-295v629h-92zM338 168h117q243 0 410 157q171 162 171 410t-171 411q-167 158 -410 158h-117v-506h225v-169h-225v-461z" />
<glyph unicode="&#xd1;" horiz-adv-x="1511" d="M154 0v1524l1009 -1089v1037h179v-1489l-1012 1089v-1072h-176zM409 1550q8 109 60 184q60 87 158 87q46 0 117.5 -48t126.5 -48q82 0 120 96h95q-12 -108 -66 -183q-63 -88 -158 -88q-49 0 -112 48q-66 50 -115 50q-97 0 -131 -98h-95z" />
<glyph unicode="&#xd2;" d="M72 739q0 318 221 542t535 224q313 0 534 -224t221 -542q0 -317 -221 -542.5t-534 -225.5t-534.5 225.5t-221.5 542.5zM252 739q0 -244 168 -419.5t408 -175.5q239 0 407 175.5t168 419.5q0 245 -168 419.5t-407 174.5q-240 0 -408 -174.5t-168 -419.5zM640 1924h201 l60 -371h-122z" />
<glyph unicode="&#xd3;" d="M72 739q0 318 221 542t535 224q313 0 534 -224t221 -542q0 -317 -221 -542.5t-534 -225.5t-534.5 225.5t-221.5 542.5zM252 739q0 -244 168 -419.5t408 -175.5q239 0 407 175.5t168 419.5q0 245 -168 419.5t-407 174.5q-240 0 -408 -174.5t-168 -419.5zM762 1553l57 371 h204l-142 -371h-119z" />
<glyph unicode="&#xd4;" d="M72 739q0 318 221 542t535 224q313 0 534 -224t221 -542q0 -317 -221 -542.5t-534 -225.5t-534.5 225.5t-221.5 542.5zM252 739q0 -244 168 -419.5t408 -175.5q239 0 407 175.5t168 419.5q0 245 -168 419.5t-407 174.5q-240 0 -408 -174.5t-168 -419.5zM571 1552l143 351 h243l144 -351h-105l-158 234l-158 -234h-109z" />
<glyph unicode="&#xd5;" d="M72 739q0 318 221 542t535 224q313 0 534 -224t221 -542q0 -317 -221 -542.5t-534 -225.5t-534.5 225.5t-221.5 542.5zM252 739q0 -244 168 -419.5t408 -175.5q239 0 407 175.5t168 419.5q0 245 -168 419.5t-407 174.5q-240 0 -408 -174.5t-168 -419.5zM470 1571 q8 109 60 184q60 87 158 87q46 0 117.5 -48t126.5 -48q82 0 120 96h95q-12 -108 -66 -183q-63 -88 -158 -88q-49 0 -112 48q-66 50 -115 50q-97 0 -131 -98h-95z" />
<glyph unicode="&#xd6;" d="M72 739q0 318 221 542t535 224q313 0 534 -224t221 -542q0 -317 -221 -542.5t-534 -225.5t-534.5 225.5t-221.5 542.5zM252 739q0 -244 168 -419.5t408 -175.5q239 0 407 175.5t168 419.5q0 245 -168 419.5t-407 174.5q-240 0 -408 -174.5t-168 -419.5zM597 1714 q0 41 27 69.5t66 28.5q38 0 65.5 -28.5t27.5 -69.5t-27.5 -70.5t-65.5 -29.5t-65.5 29.5t-27.5 70.5zM875 1714q0 41 27.5 69.5t65.5 28.5q39 0 66.5 -28.5t27.5 -69.5t-27.5 -70.5t-66.5 -29.5q-38 0 -65.5 29.5t-27.5 70.5z" />
<glyph unicode="&#xd7;" horiz-adv-x="838" d="M113 519l189 195l-189 194l118 121l188 -194l188 194l117 -121l-188 -194l188 -195l-117 -121l-188 195l-188 -195z" />
<glyph unicode="&#xd8;" d="M80 739q0 318 221 542t535 224q214 0 404 -118l64 85h164l-124 -166q247 -233 247 -567q0 -317 -221 -542.5t-534 -225.5q-214 0 -404 119l-66 -90h-163l126 169q-249 235 -249 570zM260 739q0 -244 176 -428l699 936q-144 86 -299 86q-240 0 -408 -174.5t-168 -419.5z M537 230q144 -86 299 -86q239 0 407 175.5t168 419.5q0 243 -173 425z" />
<glyph unicode="&#xd9;" horiz-adv-x="1188" d="M62 548v925h176v-925q7 -107 44 -184q88 -185 312 -185q212 0 297 180q36 76 43 181v933h178v-933q0 -173 -66 -300q-126 -240 -456 -240q-337 0 -462 242q-46 89 -60 185q-6 42 -6 121zM435 1924h201l60 -371h-122z" />
<glyph unicode="&#xda;" horiz-adv-x="1188" d="M62 548v925h176v-925q7 -107 44 -184q88 -185 312 -185q212 0 297 180q36 76 43 181v933h178v-933q0 -173 -66 -300q-126 -240 -456 -240q-337 0 -462 242q-46 89 -60 185q-6 42 -6 121zM516 1553l57 371h204l-142 -371h-119z" />
<glyph unicode="&#xdb;" horiz-adv-x="1188" d="M62 548v925h176v-925q7 -107 44 -184q88 -185 312 -185q212 0 297 180q36 76 43 181v933h178v-933q0 -173 -66 -300q-126 -240 -456 -240q-337 0 -462 242q-46 89 -60 185q-6 42 -6 121zM339 1552l143 351h243l144 -351h-105l-158 234l-158 -234h-109z" />
<glyph unicode="&#xdc;" horiz-adv-x="1188" d="M62 548v925h176v-925q7 -107 44 -184q88 -185 312 -185q212 0 297 180q36 76 43 181v933h178v-933q0 -173 -66 -300q-126 -240 -456 -240q-337 0 -462 242q-46 89 -60 185q-6 42 -6 121zM372 1714q0 41 27 69.5t66 28.5q38 0 65.5 -28.5t27.5 -69.5t-27.5 -70.5 t-65.5 -29.5t-65.5 29.5t-27.5 70.5zM650 1714q0 41 27.5 69.5t65.5 28.5q39 0 66.5 -28.5t27.5 -69.5t-27.5 -70.5t-66.5 -29.5q-38 0 -65.5 29.5t-27.5 70.5z" />
<glyph unicode="&#xdd;" horiz-adv-x="1368" d="M71 1473h215l390 -582l393 582h212l-515 -764v-709h-178v709zM639 1553l57 371h204l-142 -371h-119z" />
<glyph unicode="&#xde;" horiz-adv-x="1135" d="M162 0v1473h176v-250h266q196 0 334.5 -141t138.5 -341q0 -199 -138.5 -340t-334.5 -139l-266 2v-264h-176zM338 428l266 2q129 1 219 91.5t90 219.5q0 130 -90.5 221.5t-218.5 92.5l-266 2v-629z" />
<glyph unicode="&#xdf;" horiz-adv-x="1133" d="M70 514v168h77v295q0 186 123 309q128 127 334 127q168 0 274 -112q101 -108 101 -270q0 -146 -122 -282q210 -151 210 -374q0 -193 -138 -315q-134 -119 -337 -119h-127v166h127q130 0 215 66q94 73 94 202q0 128 -93 205q-86 71 -216 71h-127v170l139 -2 q87 -1 149 61.5t62 150.5q0 87 -64 150.5t-147 63.5q-105 0 -178 -51q-100 -69 -100 -217v-976h-179v513h-77z" />
<glyph unicode="&#xe0;" horiz-adv-x="965" d="M51 422q0 175 121 300.5t291 125.5q149 0 264 -138v138h150v-848h-150v139q-99 -139 -264 -139q-170 0 -291 123.5t-121 298.5zM201 422q0 -111 77 -189t185 -78t186 78t78 189q0 110 -78 190.5t-186 80.5t-185 -80t-77 -191zM272 1385h201l60 -371h-122z" />
<glyph unicode="&#xe1;" horiz-adv-x="965" d="M51 422q0 175 121 300.5t291 125.5q149 0 264 -138v138h150v-848h-150v139q-99 -139 -264 -139q-170 0 -291 123.5t-121 298.5zM201 422q0 -111 77 -189t185 -78t186 78t78 189q0 110 -78 190.5t-186 80.5t-185 -80t-77 -191zM414 1020l57 371h204l-142 -371h-119z" />
<glyph unicode="&#xe2;" horiz-adv-x="965" d="M51 422q0 175 121 300.5t291 125.5q149 0 264 -138v138h150v-848h-150v139q-99 -139 -264 -139q-170 0 -291 123.5t-121 298.5zM186 1020l143 351h243l144 -351h-105l-158 234l-158 -234h-109zM201 422q0 -111 77 -189t185 -78t186 78t78 189q0 110 -78 190.5t-186 80.5 t-185 -80t-77 -191z" />
<glyph unicode="&#xe3;" horiz-adv-x="965" d="M51 422q0 175 121 300.5t291 125.5q149 0 264 -138v138h150v-848h-150v139q-99 -139 -264 -139q-170 0 -291 123.5t-121 298.5zM126 1012q8 109 60 184q60 87 158 87q46 0 117.5 -48t126.5 -48q82 0 120 96h95q-12 -108 -66 -183q-63 -88 -158 -88q-49 0 -112 48 q-66 50 -115 50q-97 0 -131 -98h-95zM201 422q0 -111 77 -189t185 -78t186 78t78 189q0 110 -78 190.5t-186 80.5t-185 -80t-77 -191z" />
<glyph unicode="&#xe4;" horiz-adv-x="965" d="M51 422q0 175 121 300.5t291 125.5q149 0 264 -138v138h150v-848h-150v139q-99 -139 -264 -139q-170 0 -291 123.5t-121 298.5zM201 422q0 -111 77 -189t185 -78t186 78t78 189q0 110 -78 190.5t-186 80.5t-185 -80t-77 -191zM231 1100q0 41 27 69.5t66 28.5 q38 0 65.5 -28.5t27.5 -69.5t-27.5 -70.5t-65.5 -29.5t-65.5 29.5t-27.5 70.5zM509 1100q0 41 27.5 69.5t65.5 28.5q39 0 66.5 -28.5t27.5 -69.5t-27.5 -70.5t-66.5 -29.5q-38 0 -65.5 29.5t-27.5 70.5z" />
<glyph unicode="&#xe5;" horiz-adv-x="965" d="M51 422q0 175 121 300.5t291 125.5q149 0 264 -138v138h150v-848h-150v139q-99 -139 -264 -139q-170 0 -291 123.5t-121 298.5zM201 422q0 -111 77 -189t185 -78t186 78t78 189q0 110 -78 190.5t-186 80.5t-185 -80t-77 -191zM270 1233q0 87 61 150t147 63t147.5 -63 t61.5 -150q0 -88 -62 -152t-147 -64q-86 0 -147 63.5t-61 152.5zM352 1233q0 -53 37 -90t89 -37q51 0 87 37t36 90t-36 91t-87 38q-52 0 -89 -38.5t-37 -90.5z" />
<glyph unicode="&#xe6;" horiz-adv-x="1594" d="M59 422q0 175 121 300.5t291 125.5q149 0 264 -138v138h150v-95q121 95 251 95q166 0 282 -126.5t116 -298.5q0 -27 -3 -54h-643q24 -95 92.5 -154.5t155.5 -59.5q187 0 269 128l114 -93q-143 -190 -383 -190q-130 0 -251 94v-94h-150v139q-99 -139 -264 -139 q-170 0 -291 123.5t-121 298.5zM209 422q0 -111 77 -189t185 -78t186 78t78 189q0 110 -78 190.5t-186 80.5t-185 -80t-77 -191zM890 488h492q-27 92 -94.5 148.5t-151.5 56.5t-151.5 -56.5t-94.5 -148.5z" />
<glyph unicode="&#xe7;" horiz-adv-x="866" d="M59 426q0 173 121 297.5t291 124.5q86 0 177 -29q98 -32 156 -85l-78 -138q-41 45 -120 73q-70 25 -135 25q-108 0 -185 -79t-77 -189t77 -187t185 -77q154 0 305 87v-150q-118 -72 -248 -88l-47 -101q162 -50 162 -183q0 -138 -89 -192q-72 -43 -239 -45v106l39 -2 q164 -7 164 137q0 94 -154 99h-42l85 183q-153 29 -250.5 144.5t-97.5 268.5z" />
<glyph unicode="&#xe8;" horiz-adv-x="916" d="M51 423q0 172 116.5 298.5t282.5 126.5t282 -126.5t116 -298.5q0 -27 -3 -54h-643q24 -95 92.5 -154.5t155.5 -59.5q187 0 270 128l113 -93q-143 -190 -383 -190q-167 0 -283 125.5t-116 297.5zM204 488h492q-27 92 -94.5 148.5t-151.5 56.5t-151.5 -56.5t-94.5 -148.5z M272 1385h201l60 -371h-122z" />
<glyph unicode="&#xe9;" horiz-adv-x="916" d="M51 423q0 172 116.5 298.5t282.5 126.5t282 -126.5t116 -298.5q0 -27 -3 -54h-643q24 -95 92.5 -154.5t155.5 -59.5q187 0 270 128l113 -93q-143 -190 -383 -190q-167 0 -283 125.5t-116 297.5zM204 488h492q-27 92 -94.5 148.5t-151.5 56.5t-151.5 -56.5t-94.5 -148.5z M414 1020l57 371h204l-142 -371h-119z" />
<glyph unicode="&#xea;" horiz-adv-x="916" d="M51 423q0 172 116.5 298.5t282.5 126.5t282 -126.5t116 -298.5q0 -27 -3 -54h-643q24 -95 92.5 -154.5t155.5 -59.5q187 0 270 128l113 -93q-143 -190 -383 -190q-167 0 -283 125.5t-116 297.5zM186 1020l143 351h243l144 -351h-105l-158 234l-158 -234h-109zM204 488 h492q-27 92 -94.5 148.5t-151.5 56.5t-151.5 -56.5t-94.5 -148.5z" />
<glyph unicode="&#xeb;" horiz-adv-x="916" d="M51 423q0 172 116.5 298.5t282.5 126.5t282 -126.5t116 -298.5q0 -27 -3 -54h-643q24 -95 92.5 -154.5t155.5 -59.5q187 0 270 128l113 -93q-143 -190 -383 -190q-167 0 -283 125.5t-116 297.5zM204 488h492q-27 92 -94.5 148.5t-151.5 56.5t-151.5 -56.5t-94.5 -148.5z M231 1100q0 41 27 69.5t66 28.5q38 0 65.5 -28.5t27.5 -69.5t-27.5 -70.5t-65.5 -29.5t-65.5 29.5t-27.5 70.5zM509 1100q0 41 27.5 69.5t65.5 28.5q39 0 66.5 -28.5t27.5 -69.5t-27.5 -70.5t-66.5 -29.5q-38 0 -65.5 29.5t-27.5 70.5z" />
<glyph unicode="&#xec;" horiz-adv-x="444" d="M26 1385h201l60 -371h-122zM133 0v848h158v-848h-158z" />
<glyph unicode="&#xed;" horiz-adv-x="444" d="M133 0v848h158v-848h-158zM168 1020l57 371h204l-142 -371h-119z" />
<glyph unicode="&#xee;" horiz-adv-x="444" d="M-40 1020l143 351h243l144 -351h-105l-158 234l-158 -234h-109zM133 0v848h158v-848h-158z" />
<glyph unicode="&#xef;" horiz-adv-x="444" d="M-7 1100q0 41 27 69.5t66 28.5q38 0 65.5 -28.5t27.5 -69.5t-27.5 -70.5t-65.5 -29.5t-65.5 29.5t-27.5 70.5zM133 0v848h158v-848h-158zM271 1100q0 41 27.5 69.5t65.5 28.5q39 0 66.5 -28.5t27.5 -69.5t-27.5 -70.5t-66.5 -29.5q-38 0 -65.5 29.5t-27.5 70.5z" />
<glyph unicode="&#xf0;" horiz-adv-x="1198" d="M104 491q0 210 144.5 361.5t349.5 151.5q67 0 197 -39q-40 93 -77 165h-202v168h105q-40 61 -71 102l134 99q66 -84 134 -201h192v-168h-101q185 -386 185 -639q0 -213 -143 -361.5t-353 -148.5q-205 0 -349.5 150.5t-144.5 359.5zM272 491q0 -137 95 -236t231 -99 t231 99t95 236q0 138 -95.5 238t-230.5 100t-230.5 -100t-95.5 -238z" />
<glyph unicode="&#xf1;" horiz-adv-x="995" d="M111 0v847h145v-169q142 190 326 190q119 0 197 -66q102 -86 102 -269v-533h-146v505q0 219 -206 219q-107 0 -190 -83.5t-83 -193.5v-447h-145zM167 1012q8 109 60 184q60 87 158 87q46 0 117.5 -48t126.5 -48q82 0 120 96h95q-12 -108 -66 -183q-63 -88 -158 -88 q-49 0 -112 48q-66 50 -115 50q-97 0 -131 -98h-95z" />
<glyph unicode="&#xf2;" horiz-adv-x="987" d="M51 424q0 184 127.5 314t307.5 130q179 0 306.5 -130t127.5 -314t-127.5 -314t-306.5 -130q-180 0 -307.5 130t-127.5 314zM201 424q0 -124 83 -210t202 -86q118 0 201 86t83 210q0 123 -83 209.5t-201 86.5q-119 0 -202 -86.5t-83 -209.5zM292 1385h201l60 -371h-122z " />
<glyph unicode="&#xf3;" horiz-adv-x="987" d="M51 424q0 184 127.5 314t307.5 130q179 0 306.5 -130t127.5 -314t-127.5 -314t-306.5 -130q-180 0 -307.5 130t-127.5 314zM201 424q0 -124 83 -210t202 -86q118 0 201 86t83 210q0 123 -83 209.5t-201 86.5q-119 0 -202 -86.5t-83 -209.5zM432 1020l57 371h204 l-142 -371h-119z" />
<glyph unicode="&#xf4;" horiz-adv-x="987" d="M51 424q0 184 127.5 314t307.5 130q179 0 306.5 -130t127.5 -314t-127.5 -314t-306.5 -130q-180 0 -307.5 130t-127.5 314zM201 424q0 -124 83 -210t202 -86q118 0 201 86t83 210q0 123 -83 209.5t-201 86.5q-119 0 -202 -86.5t-83 -209.5zM220 1020l143 351h243 l144 -351h-105l-158 234l-158 -234h-109z" />
<glyph unicode="&#xf5;" horiz-adv-x="987" d="M51 424q0 184 127.5 314t307.5 130q179 0 306.5 -130t127.5 -314t-127.5 -314t-306.5 -130q-180 0 -307.5 130t-127.5 314zM167 1012q8 109 60 184q60 87 158 87q46 0 117.5 -48t126.5 -48q82 0 120 96h95q-12 -108 -66 -183q-63 -88 -158 -88q-49 0 -112 48 q-66 50 -115 50q-97 0 -131 -98h-95zM201 424q0 -124 83 -210t202 -86q118 0 201 86t83 210q0 123 -83 209.5t-201 86.5q-119 0 -202 -86.5t-83 -209.5z" />
<glyph unicode="&#xf6;" horiz-adv-x="987" d="M51 424q0 184 127.5 314t307.5 130q179 0 306.5 -130t127.5 -314t-127.5 -314t-306.5 -130q-180 0 -307.5 130t-127.5 314zM201 424q0 -124 83 -210t202 -86q118 0 201 86t83 210q0 123 -83 209.5t-201 86.5q-119 0 -202 -86.5t-83 -209.5zM266 1100q0 41 27 69.5 t66 28.5q38 0 65.5 -28.5t27.5 -69.5t-27.5 -70.5t-65.5 -29.5t-65.5 29.5t-27.5 70.5zM544 1100q0 41 27.5 69.5t65.5 28.5q39 0 66.5 -28.5t27.5 -69.5t-27.5 -70.5t-66.5 -29.5q-38 0 -65.5 29.5t-27.5 70.5z" />
<glyph unicode="&#xf7;" horiz-adv-x="839" d="M70 594v179h698v-179h-698zM313 404q0 37 27 64t63 27q37 0 61.5 -26.5t24.5 -64.5t-24.5 -64.5t-61.5 -26.5q-36 0 -63 27t-27 64zM313 960q0 37 27 64t63 27q37 0 61.5 -26.5t24.5 -64.5t-24.5 -64.5t-61.5 -26.5q-36 0 -63 27t-27 64z" />
<glyph unicode="&#xf8;" horiz-adv-x="987" d="M59 424q0 184 127.5 314t307.5 130q100 0 198 -48l36 48h165l-95 -127q130 -136 130 -317q0 -184 -127.5 -314t-306.5 -130q-114 0 -221 61l-30 -41h-163l93 124q-114 133 -114 300zM209 424q0 -90 55 -177l337 451q-59 22 -107 22q-119 0 -202 -86.5t-83 -209.5z M363 161q68 -33 131 -33q118 0 201 86t83 210q0 105 -71 197z" />
<glyph unicode="&#xf9;" horiz-adv-x="862" d="M62 422v426h151v-426q0 -113 47 -183q55 -84 162 -84q108 0 163 84q48 71 48 183v426h152v-426q0 -178 -94 -296q-101 -126 -269 -126t-268 126q-92 118 -92 296zM251 1385h201l60 -371h-122z" />
<glyph unicode="&#xfa;" horiz-adv-x="862" d="M62 422v426h151v-426q0 -113 47 -183q55 -84 162 -84q108 0 163 84q48 71 48 183v426h152v-426q0 -178 -94 -296q-101 -126 -269 -126t-268 126q-92 118 -92 296zM393 1020l57 371h204l-142 -371h-119z" />
<glyph unicode="&#xfb;" horiz-adv-x="862" d="M62 422v426h151v-426q0 -113 47 -183q55 -84 162 -84q108 0 163 84q48 71 48 183v426h152v-426q0 -178 -94 -296q-101 -126 -269 -126t-268 126q-92 118 -92 296zM165 1020l143 351h243l144 -351h-105l-158 234l-158 -234h-109z" />
<glyph unicode="&#xfc;" horiz-adv-x="862" d="M62 422v426h151v-426q0 -113 47 -183q55 -84 162 -84q108 0 163 84q48 71 48 183v426h152v-426q0 -178 -94 -296q-101 -126 -269 -126t-268 126q-92 118 -92 296zM198 1100q0 41 27 69.5t66 28.5q38 0 65.5 -28.5t27.5 -69.5t-27.5 -70.5t-65.5 -29.5t-65.5 29.5 t-27.5 70.5zM476 1100q0 41 27.5 69.5t65.5 28.5q39 0 66.5 -28.5t27.5 -69.5t-27.5 -70.5t-66.5 -29.5q-38 0 -65.5 29.5t-27.5 70.5z" />
<glyph unicode="&#xfd;" horiz-adv-x="989" d="M46 848h171l273 -508l268 508h171l-634 -1190h-175l283 519zM432 1017l57 371h204l-142 -371h-119z" />
<glyph unicode="&#xfe;" horiz-adv-x="1051" d="M119 -369v1606h145v-544q136 171 305 171q176 0 299 -129t123 -311q0 -183 -123 -311.5t-299 -128.5q-169 0 -305 171v-524h-145zM272 424q0 -122 83.5 -207.5t201.5 -85.5t201.5 85.5t83.5 207.5t-83.5 207t-201.5 85t-201.5 -85t-83.5 -207z" />
<glyph unicode="&#xff;" horiz-adv-x="989" d="M46 848h171l273 -508l268 508h171l-634 -1190h-175l283 519zM266 1100q0 41 27 69.5t66 28.5q38 0 65.5 -28.5t27.5 -69.5t-27.5 -70.5t-65.5 -29.5t-65.5 29.5t-27.5 70.5zM544 1100q0 41 27.5 69.5t65.5 28.5q39 0 66.5 -28.5t27.5 -69.5t-27.5 -70.5t-66.5 -29.5 q-38 0 -65.5 29.5t-27.5 70.5z" />
<glyph unicode="&#x152;" horiz-adv-x="2451" d="M80 739q0 318 221 542t535 224q336 0 579 -273v240h903v-178h-727v-577h592v-179h-592v-359h727v-179h-903v246q-243 -275 -579 -275q-313 0 -534.5 225.5t-221.5 542.5zM260 739q0 -244 168 -419.5t408 -175.5q239 0 407 175.5t168 419.5q0 245 -168 419.5t-407 174.5 q-240 0 -408 -174.5t-168 -419.5z" />
<glyph unicode="&#x153;" horiz-adv-x="1637" d="M59 424q0 184 127.5 314t307.5 130q223 0 362 -198q128 177 323 177q166 0 282 -126t116 -298q0 -27 -3 -54h-643q24 -95 92.5 -154.5t155.5 -59.5q187 0 269 129l114 -94q-143 -190 -383 -190q-196 0 -324 177q-138 -197 -361 -197q-180 0 -307.5 130t-127.5 314z M209 424q0 -124 83 -210t202 -86q118 0 201 86t83 210q0 123 -83 209.5t-201 86.5q-119 0 -202 -86.5t-83 -209.5zM933 488h492q-27 92 -94.5 148t-151.5 56t-151.5 -56t-94.5 -148z" />
<glyph unicode="&#x178;" horiz-adv-x="1368" d="M71 1473h215l390 -582l393 582h212l-515 -764v-709h-178v709zM446 1714q0 41 27 69.5t66 28.5q38 0 65.5 -28.5t27.5 -69.5t-27.5 -70.5t-65.5 -29.5t-65.5 29.5t-27.5 70.5zM724 1714q0 41 27.5 69.5t65.5 28.5q39 0 66.5 -28.5t27.5 -69.5t-27.5 -70.5t-66.5 -29.5 q-38 0 -65.5 29.5t-27.5 70.5z" />
<glyph unicode="&#x2c6;" horiz-adv-x="680" d="M75 1122l143 351h243l144 -351h-105l-158 234l-158 -234h-109z" />
<glyph unicode="&#x2dc;" horiz-adv-x="821" d="M73 1202q8 109 60 184q60 87 158 87q46 0 117.5 -48t126.5 -48q82 0 120 96h95q-12 -108 -66 -183q-63 -88 -158 -88q-49 0 -112 48q-66 50 -115 50q-97 0 -131 -98h-95z" />
<glyph unicode="&#x2000;" horiz-adv-x="1023" />
<glyph unicode="&#x2001;" horiz-adv-x="2046" />
<glyph unicode="&#x2002;" horiz-adv-x="1023" />
<glyph unicode="&#x2003;" horiz-adv-x="2046" />
<glyph unicode="&#x2004;" horiz-adv-x="682" />
<glyph unicode="&#x2005;" horiz-adv-x="511" />
<glyph unicode="&#x2006;" horiz-adv-x="341" />
<glyph unicode="&#x2007;" horiz-adv-x="341" />
<glyph unicode="&#x2008;" horiz-adv-x="255" />
<glyph unicode="&#x2009;" horiz-adv-x="409" />
<glyph unicode="&#x200a;" horiz-adv-x="113" />
<glyph unicode="&#x2010;" horiz-adv-x="838" d="M70 621v186h698v-186h-698z" />
<glyph unicode="&#x2011;" horiz-adv-x="838" d="M70 621v186h698v-186h-698z" />
<glyph unicode="&#x2012;" horiz-adv-x="838" d="M70 621v186h698v-186h-698z" />
<glyph unicode="&#x2013;" horiz-adv-x="606" d="M70 621v186h467v-186h-467z" />
<glyph unicode="&#x2014;" horiz-adv-x="1071" d="M70 621v186h931v-186h-931z" />
<glyph unicode="&#x2018;" horiz-adv-x="334" d="M74 1047v201l137 219l48 -50l-26 -165v-205h-159z" />
<glyph unicode="&#x2019;" horiz-adv-x="334" d="M75 1102l27 165v206h158v-202l-135 -219z" />
<glyph unicode="&#x201a;" horiz-adv-x="324" d="M70 -166l26 166v205h160v-201l-135 -219z" />
<glyph unicode="&#x201c;" horiz-adv-x="616" d="M74 1047v201l137 219l48 -50l-26 -165v-205h-159zM358 1047v201l135 219l51 -50l-28 -165v-205h-158z" />
<glyph unicode="&#x201d;" horiz-adv-x="616" d="M75 1102l27 165v206h158v-202l-135 -219zM359 1102l24 165v206h162l-2 -202l-135 -218z" />
<glyph unicode="&#x201e;" horiz-adv-x="606" d="M70 -166l26 166v205h160v-201l-135 -219zM353 -166l26 166v205h160l-2 -201l-133 -219z" />
<glyph unicode="&#x2022;" horiz-adv-x="424" d="M70 741q0 64 42 109t101 45t101 -45t42 -109q0 -63 -42 -108t-101 -45t-101 45t-42 108z" />
<glyph unicode="&#x2026;" horiz-adv-x="1104" d="M70 98q0 41 25.5 70t62.5 29q36 0 62 -29t26 -70q0 -40 -26 -69t-62 -29q-37 0 -62.5 29t-25.5 69zM465 98q0 41 25 70t61 29q37 0 63.5 -29t26.5 -70q0 -40 -26.5 -69t-63.5 -29q-36 0 -61 28.5t-25 69.5zM858 98q0 41 26 70t62 29q37 0 63.5 -29t26.5 -70 q0 -40 -26.5 -69t-63.5 -29q-36 0 -62 29t-26 69z" />
<glyph unicode="&#x202f;" horiz-adv-x="409" />
<glyph unicode="&#x2039;" horiz-adv-x="610" d="M79 430l462 289v-179l-192 -110l192 -106v-179z" />
<glyph unicode="&#x203a;" horiz-adv-x="612" d="M70 145v179l191 106l-191 110v179l461 -289z" />
<glyph unicode="&#x205f;" horiz-adv-x="511" />
<glyph unicode="&#x2122;" horiz-adv-x="1208" d="M70 1157v100h434v-100h-166v-493h-100v493h-168zM556 664l48 596l248 -308l242 297l46 -585h-100l-24 317l-164 -179l-170 189l-26 -327h-100z" />
<glyph unicode="&#x25fc;" horiz-adv-x="850" d="M0 0v850h850v-850h-850z" />
</font>
</defs>
</svg>
